<?xml version="1.0" encoding="iso-8859-1"?>
<!-- Uploaded to: SVG Repo, www.svgrepo.com, Generator: SVG Repo Mixer Tools -->
<svg fill="#221f1f" height="800px" width="800px" version="1.1" id="Layer_1" xmlns="http://www.w3.org/2000/svg" xmlns:xlink="http://www.w3.org/1999/xlink" 
	 viewBox="0 0 512 512" xml:space="preserve">
<g transform="translate(0 1)">
	<g>
		<g>
			<path d="M238.933,67.267H51.2c-9.387,0-17.067,7.68-17.067,17.067v136.533c0,9.387,7.68,17.067,17.067,17.067h187.733
				c9.387,0,17.067-7.68,17.067-17.067V84.333C256,74.947,248.32,67.267,238.933,67.267z M238.933,220.867H51.2V84.333h187.733
				V220.867z"/>
			<path d="M401.067,160.046v1.088c0,5.12,3.413,8.533,8.533,8.533c4.267,0,8.533-3.413,8.533-8.533v-1.088
				c3.149-0.818,6.122-2.082,8.854-3.712l0.533,0.533c1.707,1.707,3.413,2.56,5.973,2.56s4.267-0.853,5.973-2.56
				c3.413-3.413,3.413-8.533,0-11.947l-0.533-0.533c1.63-2.732,2.894-5.705,3.712-8.854h1.088c4.267,0,8.533-3.413,8.533-8.533
				s-3.413-8.533-8.533-8.533h-1.088c-0.818-3.149-2.082-6.122-3.712-8.854l0.533-0.533c3.413-3.413,3.413-8.533,0-11.947
				c-3.413-3.413-8.533-3.413-11.947,0l-0.533,0.533c-2.732-1.63-5.705-2.894-8.854-3.712v-1.088c0-5.12-3.413-8.533-8.533-8.533
				s-8.533,3.413-8.533,8.533v1.088c-3.149,0.818-6.122,2.082-8.854,3.712l-0.533-0.533c-3.413-3.413-8.533-3.413-11.947,0
				c-3.413,3.413-3.413,8.533,0,11.947l0.533,0.533c-1.63,2.732-2.894,5.705-3.712,8.854h-1.088c-5.12,0-8.533,3.413-8.533,8.533
				s3.413,8.533,8.533,8.533h1.088c0.818,3.149,2.082,6.122,3.712,8.854l-0.533,0.533c-3.413,3.413-3.413,8.533,0,11.947
				c1.707,1.707,3.413,2.56,5.973,2.56c1.707,0,4.267-0.853,5.973-2.56l0.533-0.533
				C394.945,157.964,397.918,159.228,401.067,160.046z M392.533,127c0-4.282,1.611-8.199,4.241-11.203
				c0.309-0.229,0.607-0.471,0.88-0.743c0.3-0.3,0.564-0.617,0.812-0.942c2.996-2.594,6.886-4.178,11.135-4.178
				c4.249,0,8.139,1.584,11.135,4.178c0.247,0.324,0.512,0.642,0.812,0.942c0.342,0.342,0.685,0.64,1.034,0.913
				c2.541,2.982,4.086,6.833,4.086,11.034c0,4.249-1.585,8.139-4.178,11.135c-0.324,0.247-0.642,0.512-0.942,0.812
				c-0.3,0.3-0.564,0.618-0.812,0.942c-2.996,2.594-6.885,4.178-11.135,4.178c-4.249,0-8.139-1.585-11.135-4.178
				c-0.247-0.324-0.512-0.642-0.812-0.942c-0.3-0.3-0.618-0.564-0.942-0.812C394.118,135.139,392.533,131.249,392.533,127z"/>
			<path d="M332.8,135.533h-34.133c-9.387,0-17.067,7.68-17.067,17.067v17.067c0,9.387,7.68,17.067,17.067,17.067H332.8
				c9.387,0,17.067-7.68,17.067-17.067V152.6C349.867,143.213,342.187,135.533,332.8,135.533z M332.8,169.667h-34.133V152.6H332.8
				V169.667z"/>
			<path d="M332.8,67.267h-34.133c-9.387,0-17.067,7.68-17.067,17.067V101.4c0,9.387,7.68,17.067,17.067,17.067H332.8
				c9.387,0,17.067-7.68,17.067-17.067V84.333C349.867,74.947,342.187,67.267,332.8,67.267z M332.8,101.4h-34.133V84.333H332.8
				V101.4z"/>
			<path d="M341.333,220.867h-22.187l2.56-2.56c3.413-3.413,3.413-8.533,0-11.947c-3.413-3.413-8.533-3.413-11.947,0l-15.606,15.606
				c-2.508,1.394-4.018,4.03-4.02,7.426c0,0.005,0,0.01,0,0.015c0.002,3.395,1.512,6.032,4.02,7.426l15.606,15.606
				c1.707,1.707,3.413,2.56,5.973,2.56s4.267-0.853,5.973-2.56c3.413-3.413,3.413-8.533,0-11.947l-2.56-2.56h22.187
				c4.267,0,8.533-3.413,8.533-8.533S346.453,220.867,341.333,220.867z"/>
			<path d="M452.266,229.392c-0.002-3.395-1.512-6.031-4.02-7.426L432.64,206.36c-3.413-3.413-8.533-3.413-11.947,0
				s-3.413,8.533,0,11.947l2.56,2.56h-22.187c-5.12,0-8.533,3.413-8.533,8.533s3.413,8.533,8.533,8.533h22.187l-2.56,2.56
				c-3.413,3.413-3.413,8.533,0,11.947c1.707,1.707,3.413,2.56,5.973,2.56s4.267-0.853,5.973-2.56l16.295-16.295
				c1.774-1.352,3.058-3.404,3.289-5.928C452.252,229.942,452.267,229.667,452.266,229.392z"/>
			<path d="M491.416,310.922c2.243-3.83,3.518-8.346,3.518-13.255V58.733c0-14.507-11.093-25.6-25.6-25.6h-17.067V24.6
				c0-14.507-11.093-25.6-25.6-25.6h-34.133c-14.507,0-25.6,11.093-25.6,25.6v8.533H25.6c-14.507,0-25.6,11.093-25.6,25.6v238.933
				c0,14.507,11.093,25.6,25.6,25.6h434.236c-14.017,49.299-16.894,126.874-16.103,145.067v8.533
				c0,18.773,15.36,34.133,34.133,34.133C496.64,511,512,495.64,512,477.72C512,404.389,499.344,336.276,491.416,310.922z M384,24.6
				c0-5.12,3.413-8.533,8.533-8.533h34.133c5.12,0,8.533,3.413,8.533,8.533v8.533H384V24.6z M17.067,297.667V58.733
				c0-5.12,3.413-8.533,8.533-8.533h349.867h68.267h25.6c5.12,0,8.533,3.413,8.533,8.533v238.933c0,1.672-0.37,3.158-1.039,4.406
				c-0.583,0.422-1.105,0.942-1.522,1.567c-0.176,0.352-0.397,0.658-0.645,0.937c-1.41,1.037-3.221,1.623-5.328,1.623H25.6
				C20.48,306.2,17.067,302.787,17.067,297.667z M494.933,477.72c0,9.387-7.68,17.067-17.067,17.067s-17.067-7.68-17.067-17.067
				v-9.387c-0.853-17.067,2.56-98.987,17.067-145.92C485.547,349.72,495.787,411.16,494.933,477.72z"/>
		</g>
	</g>
</g>
</svg>