<?xml version="1.0" ?><!-- Uploaded to: SVG Repo, www.svgrepo.com, Generator: SVG Repo Mixer Tools -->
<svg fill="#221f1f" width="800px" height="800px" viewBox="0 0 100 100" data-name="Layer 1" id="Layer_1" xmlns="http://www.w3.org/2000/svg"><path d="M28.45,34a5,5,0,1,0,5,5A5,5,0,0,0,28.45,34Zm0,7.51A2.51,2.51,0,1,1,31,39,2.51,2.51,0,0,1,28.45,41.52Z"/><path d="M21.66,23.24a1.25,1.25,0,0,0-2.31,1,1.28,1.28,0,0,0,1.16.76,1.18,1.18,0,0,0,.48-.1A1.25,1.25,0,0,0,21.66,23.24Z"/><path d="M22.06,28.67a1.43,1.43,0,0,0,.49-.1,1.26,1.26,0,0,0,.66-1.64,1.25,1.25,0,1,0-1.15,1.74Z"/><path d="M18.43,31.9a1.2,1.2,0,0,0,.6.16,1.25,1.25,0,0,0,.61-2.34,1.25,1.25,0,1,0-1.21,2.18Z"/><path d="M13.13,27.54a1.25,1.25,0,0,0-2.19-1.21,1.24,1.24,0,0,0,.49,1.7,1.2,1.2,0,0,0,.6.16A1.25,1.25,0,0,0,13.13,27.54Z"/><path d="M16.63,29.48a1.26,1.26,0,0,0-.49-1.7A1.25,1.25,0,1,0,14.93,30a1.31,1.31,0,0,0,.6.16A1.27,1.27,0,0,0,16.63,29.48Z"/><path d="M12.68,34.11a1.25,1.25,0,0,0,.14,2.49H13a1.25,1.25,0,0,0-.28-2.49Z"/><path d="M16.94,36.14a1.23,1.23,0,1,0-.14,0Z"/><path d="M73.23,70.16a1.27,1.27,0,0,0-.9.38,17.27,17.27,0,0,1-25,0,1.26,1.26,0,0,0-.9-.38c-7.3,0-12.33,1.74-14.93,5.16a9.61,9.61,0,0,0-1.63,7.85,1.25,1.25,0,0,0,2.41-.66,7.05,7.05,0,0,1,1.23-5.71c2-2.63,6.31-4.06,12.41-4.13a19.76,19.76,0,0,0,13.9,5.71h0a19.77,19.77,0,0,0,13.9-5.71c6.09.07,10.38,1.5,12.41,4.13a7,7,0,0,1,1.22,5.71,1.26,1.26,0,0,0,.88,1.54,1.26,1.26,0,0,0,1.53-.88,9.54,9.54,0,0,0-1.62-7.85C85.56,71.9,80.54,70.16,73.23,70.16Z"/><path d="M65.29,56.55l-.2.19a7.37,7.37,0,0,1-10.68,0,1.26,1.26,0,0,0-1.77,0,1.24,1.24,0,0,0,0,1.76,9.83,9.83,0,0,0,7.13,3.05h0a9.87,9.87,0,0,0,7.14-3.05l.19-.19a1.25,1.25,0,1,0-1.79-1.74Z"/><path d="M86.58,38a1.27,1.27,0,0,0-1.65-.65,28.86,28.86,0,0,1-4,1.43l-.14,0C78.67,26.89,70.2,18.69,59.85,18.69c-6.87,0-13.21,3.78-17.18,10.18a4,4,0,0,0-1.1-.17h-9.7A12.53,12.53,0,0,0,19.35,41.23V56.47a8.26,8.26,0,0,0,8.25,8.26h1.93a8.13,8.13,0,0,0,8.12-8.13v-7a4.83,4.83,0,0,0,1.28.43c2.11,12.71,11,22.17,20.92,22.17S78.66,62.72,80.76,50a5.55,5.55,0,0,0,4.4-5.62,6,6,0,0,0-1.41-3.88c.72-.25,1.44-.52,2.18-.84A1.27,1.27,0,0,0,86.58,38ZM42.51,31.48h0a1.6,1.6,0,0,1,.35.28v0a1.66,1.66,0,0,1,.22.3l0,.09a2.33,2.33,0,0,1,.11.28.54.54,0,0,1,0,.1,1.45,1.45,0,0,1,.06.41v7.46a1.77,1.77,0,0,1-1.77,1.77,4.93,4.93,0,0,0-.55,0V39.7a1.06,1.06,0,0,0,0-.19,1.42,1.42,0,0,0,0-.2,1.25,1.25,0,0,0-1.25-1.25.63.63,0,1,1,0-1.25A1.25,1.25,0,0,0,41,35.56a1.3,1.3,0,0,0-.07-.33A1.14,1.14,0,0,0,41,34.9V31.2h.55A1.76,1.76,0,0,1,42.51,31.48ZM35.15,48.62v8a5.63,5.63,0,0,1-5.62,5.63H27.6a5.76,5.76,0,0,1-5.75-5.76V41.23a10,10,0,0,1,10-10h6.65v3.38a3.12,3.12,0,0,0,0,5.72V43a6.2,6.2,0,0,0-.69.44l-.14.1A6.42,6.42,0,0,0,35.15,48.62Zm47.51-4.23A3,3,0,0,1,80,47.57h0l-.2,0a1.25,1.25,0,0,0-1.35,1.07c-1.61,12-9.6,21.06-18.59,21.06s-17-9.05-18.6-21.06A1.25,1.25,0,0,0,40,47.54H39.9a.63.63,0,0,0-.19,0,2.39,2.39,0,0,1-1.63-.69,3.79,3.79,0,0,1,.56-.85L38.7,46a3.31,3.31,0,0,1,.27-.26,2.75,2.75,0,0,1,.26-.22l.22-.16A3.37,3.37,0,0,1,40,45l.14-.06a4.64,4.64,0,0,1,.53-.16l.19,0a4.05,4.05,0,0,1,.7-.07,4.28,4.28,0,0,0,4.27-4.27V33a4.48,4.48,0,0,0-.09-.82,2.5,2.5,0,0,0-.07-.26,4.16,4.16,0,0,0-.16-.5c0-.1-.09-.2-.14-.3s-.14-.27-.22-.4-.14-.2-.21-.3l-.16-.21c3.51-5.65,9.07-9,15.06-9,9.15,0,16.63,7.44,18.45,18.19a25.86,25.86,0,0,1-21.07-5.84,1.25,1.25,0,1,0-1.72,1.82,29.42,29.42,0,0,0,18.6,6.86,28.33,28.33,0,0,0,6.74-.83A3.18,3.18,0,0,1,82.66,44.39Z"/><path d="M57.11,47.43a1.25,1.25,0,0,0-1.25-1.25H51.17a1.25,1.25,0,0,0,0,2.5h4.69A1.24,1.24,0,0,0,57.11,47.43Z"/><path d="M68.53,46.18h-4.7a1.25,1.25,0,0,0,0,2.5h4.7a1.25,1.25,0,0,0,0-2.5Z"/></svg>