<?xml version='1.0' encoding='utf-8'?>
<!DOCTYPE svg PUBLIC '-//W3C//DTD SVG 1.1//EN' 'http://www.w3.org/Graphics/SVG/1.1/DTD/svg11.dtd'>
<!-- Uploaded to: SVG Repo, www.svgrepo.com, Generator: SVG Repo Mixer Tools -->
<svg fill="#000000" height="50px" width="40px" version="1.1" xmlns="http://www.w3.org/2000/svg" viewBox="0 0 512 512" xmlns:xlink="http://www.w3.org/1999/xlink" enable-background="new 0 0 512 512">
  <g>
    <g>
      <path d="m405.4,191.4h-34.5v-65.5c0-63.4-51.6-114.9-114.9-114.9-63.3,0-114.9,51.5-114.9,114.9v65.5h-34.5c-11.3,0-20.4,9.1-20.4,20.4v119.4c1.42109e-14,93.6 76.2,169.8 169.8,169.8 93.6,0 169.8-76.2 169.8-169.8v-119.4c0-11.2-9.1-20.4-20.4-20.4zm-223.4-65.5c0-40.8 33.2-74.1 74-74.1 40.8,0 74.1,33.2 74.1,74.1v65.5h-148.1v-65.5zm203,205.3c0,71.1-57.9,129-129,129-71.1,0-129-57.9-129-129v-99h258v99z"/>
      <path d="m256,422.1c11.3,0 20.4-9.1 20.4-20.4v-55.4c0-11.3-9.1-20.4-20.4-20.4-11.3,0-20.4,9.1-20.4,20.4v55.4c2.84217e-14,11.2 9.1,20.4 20.4,20.4z"/>
    </g>
  </g>
</svg>